<svg width="20" height="19" viewBox="0 0 20 19" fill="none" xmlns="http://www.w3.org/2000/svg">
<path d="M18.3332 13.5994V16.0994C18.3341 16.3315 18.2866 16.5612 18.1936 16.7739C18.1006 16.9865 17.9643 17.1774 17.7933 17.3343C17.6222 17.4912 17.4203 17.6107 17.2005 17.685C16.9806 17.7594 16.7477 17.787 16.5165 17.7661C13.9522 17.4875 11.489 16.6112 9.32486 15.2078C7.31139 13.9283 5.60431 12.2212 4.32486 10.2078C2.91651 8.03377 2.04007 5.55859 1.76653 2.98276C1.7457 2.75232 1.77309 2.52006 1.84695 2.30078C1.9208 2.0815 2.03951 1.88 2.1955 1.70911C2.3515 1.53822 2.54137 1.40169 2.75302 1.3082C2.96468 1.21471 3.19348 1.16631 3.42486 1.1661H5.92486C6.32928 1.16212 6.72136 1.30533 7.028 1.56904C7.33464 1.83275 7.53493 2.19897 7.59153 2.59943C7.69705 3.39949 7.89274 4.18504 8.17486 4.9411C8.28698 5.23937 8.31125 5.56353 8.24478 5.87516C8.17832 6.1868 8.02392 6.47286 7.79986 6.69943L6.74153 7.75776C7.92783 9.84405 9.65524 11.5715 11.7415 12.7578L12.7999 11.6994C13.0264 11.4754 13.3125 11.321 13.6241 11.2545C13.9358 11.188 14.2599 11.2123 14.5582 11.3244C15.3143 11.6066 16.0998 11.8022 16.8999 11.9078C17.3047 11.9649 17.6744 12.1688 17.9386 12.4807C18.2029 12.7926 18.3433 13.1907 18.3332 13.5994Z" stroke="white" stroke-width="2" stroke-linecap="round" stroke-linejoin="round"/>
</svg>
