<svg xmlns="http://www.w3.org/2000/svg" viewBox="0 0 291 81">
	<g>
		<path fill="#007698" d="M290.994,56.979c-68.359,0-136.721,0-205.141,0c0-0.473,0-0.82,0-1.313
			c0.552,0,1.041,0,1.53,0c67.37,0,134.743,0,202.114,0.003c0.498,0,0.998,0.039,1.496,0.06
			C290.994,56.146,290.994,56.563,290.994,56.979z M290.994,42.729c-2.15,0.111-4.299,0.266-6.451,0.32
			c-1.621,0.041-3.248-0.029-4.871-0.081c-0.863-0.028-1.465-0.262-1.391-1.387c0.105-1.576,0.027-3.165,0.025-4.748
			c0-1.488,0-2.975,0-4.604c2.836,0,5.49,0.012,8.146-0.004c1.793-0.011,2.59-0.939,2.422-2.932c-3.463,0-6.941,0-10.488,0
			c0-3.251,0-6.354,0-9.595c0.646,0,1.219,0.007,1.791-0.001c2.371-0.032,4.748,0.017,7.111-0.136
			c1.535-0.099,2.172-1.116,2.023-2.798c-3.91,0-7.824-0.021-11.738,0.017c-0.822,0.008-1.639,0.265-2.463,0.347
			c-0.824,0.082-1.162,0.463-1.072,1.303c0.105,0.986,0.195,1.98,0.197,2.971c0.016,7.333,0.008,14.666,0.01,21.999
			c0,1.914,0.232,2.257,2.082,2.313c3.781,0.113,7.566,0.1,11.348,0.2c1.367,0.037,2.17-0.638,2.764-1.74
			c0.174-0.321,0.369-0.63,0.555-0.944C290.994,43.063,290.994,42.896,290.994,42.729z M290.994,75.229
			c-0.436-2.188-2.049-3.28-3.867-4.213c-0.811-0.416-1.682-0.823-2.307-1.452c-0.461-0.462-0.82-1.31-0.742-1.924
			c0.059-0.45,0.875-1.088,1.396-1.133c0.986-0.084,2.021,0.123,3.004,0.351c0.775,0.18,1.188-0.079,1.486-0.729
			c0.328-0.709-0.02-1.087-0.643-1.348c-1.969-0.822-3.975-0.915-5.941-0.091c-2.408,1.01-3.414,3.874-2.008,6.025
			c0.604,0.925,1.662,1.579,2.578,2.268c0.99,0.743,2.154,1.277,3.066,2.098c0.953,0.858,0.617,2.283-0.59,2.723
			c-0.664,0.241-1.463,0.333-2.156,0.218c-1.08-0.18-2.121-0.593-3.188-0.91c-0.939,1.515-0.734,2.187,0.885,2.805
			c3.945,1.508,7.271,0.149,9.025-3.688C290.994,75.896,290.994,75.562,290.994,75.229z M174.699,19.736
			c-1.014,3.468-2.09,6.918-3.127,10.38c-0.965,3.214-1.908,6.435-2.918,9.843c-0.18-0.448-0.307-0.703-0.385-0.971
			c-1.197-4.108-2.367-8.224-3.59-12.323c-0.854-2.867-1.766-5.717-2.684-8.564c-0.221-0.684-0.365-1.603-1.385-1.471
			c-1.119,0.145-2.219,0.449-3.354,0.69c0.988,2.79,1.951,5.312,2.779,7.876c2.174,6.722,4.307,13.458,6.406,20.203
			c0.232,0.747,0.596,0.877,1.256,0.815c1.713-0.159,2.293-0.631,2.797-2.321c1.078-3.623,2.158-7.246,3.248-10.865
			c0.924-3.075,1.865-6.146,2.885-9.505c0.264,0.764,0.449,1.222,0.582,1.695c1.871,6.681,3.744,13.361,5.586,20.05
			c0.219,0.796,0.586,1.011,1.406,0.95c1.555-0.115,2.328-0.938,2.82-2.356c2.775-8.008,5.602-16,8.426-23.991
			c0.926-2.619,1.045-3.092-2.354-3.228c-0.076-0.003-0.154,0.054-0.248,0.089c-2.518,7.719-5.039,15.447-7.656,23.47
			c-0.193-0.574-0.291-0.828-0.363-1.089c-1.875-6.638-3.746-13.276-5.615-19.915c-0.818-2.905-1.316-3.143-4.102-2.023
			C174.961,18.14,174.924,18.965,174.699,19.736z M220.355,16.668c-1.211-0.014-1.623,0.518-1.586,1.768
			c0.094,3.122,0.033,6.248,0.029,9.372c-0.002,0.44-0.041,0.881-0.064,1.32c-5.018,0-9.902,0-14.924,0c0-3.258,0-6.416,0-9.573
			c0-3.262-0.039-3.28-3.303-2.798c-0.793,0.117-1.01,0.489-0.967,1.246c0.105,1.823,0.191,3.648,0.197,5.474
			c0.023,6.165,0.021,12.331,0,18.496c-0.006,1.304-0.141,2.607-0.217,3.92c1.082,0,1.951,0.03,2.818-0.008
			c1.025-0.045,1.52-0.492,1.496-1.65c-0.072-3.498-0.025-6.998-0.025-10.497c0-0.487,0-0.975,0-1.584c5.068,0,9.961,0,14.99,0
			c0,0.406,0,0.856,0,1.305c0,3.791-0.018,7.582,0.027,11.373c0.004,0.381,0.393,1.085,0.594,1.081
			c1.146-0.019,2.344-0.059,3.398-0.438c0.271-0.098,0.096-1.443,0.123-2.216c0.004-0.125,0-0.25,0-0.375c0-7.707,0-15.414,0-23.12
			c0-0.99,0-1.98,0-3.092C222.074,16.67,221.215,16.678,220.355,16.668z M227.377,45.91c1.258,0.282,2.072-0.026,2.586-1.392
			c0.873-2.33,2.023-4.555,2.947-6.867c0.313-0.78,0.719-0.96,1.475-0.953c3.082,0.033,6.164,0.042,9.246-0.005
			c0.816-0.012,1.26,0.187,1.58,0.998c0.961,2.433,2,4.836,3.076,7.221c0.191,0.427,0.699,0.996,1.07,1.005
			c1.209,0.027,2.422-0.175,3.715-0.297c-0.113-0.522-0.127-0.773-0.221-0.991c-3.658-8.601-7.324-17.199-10.988-25.797
			c-1.037-2.434-1.207-2.528-3.807-2.017c-0.354,0.07-0.699,0.183-0.701,0.183c-0.176,1.052-0.154,1.96-0.482,2.718
			c-2.604,6.026-5.268,12.025-7.926,18.029c-1.105,2.499-2.236,4.987-3.449,7.687C226.27,45.629,226.82,45.785,227.377,45.91z
			M234.434,33.715c1.543-3.757,3.045-7.418,4.711-11.476c1.615,3.989,3.09,7.632,4.646,11.476
			C240.555,33.715,237.576,33.715,234.434,33.715z M115.052,19.145c-2.046,4.814-4.166,9.598-6.282,14.382
			c-1.727,3.904-3.479,7.797-5.275,11.82c0.59,0.203,1.072,0.43,1.579,0.535c1.733,0.36,2.082,0.213,2.808-1.372
			c1.038-2.265,2.052-4.542,2.988-6.85c0.308-0.757,0.711-0.972,1.481-0.962c3.121,0.037,6.243,0.034,9.364,0.001
			c0.719-0.008,1.116,0.181,1.399,0.893c0.95,2.391,1.946,4.766,3.006,7.11c0.227,0.503,0.774,1.184,1.206,1.208
			c1.205,0.066,2.426-0.169,3.7-0.291c-0.076-0.426-0.075-0.596-0.136-0.739c-3.607-8.48-7.22-16.957-10.831-25.435
			c-1.379-3.238-1.489-3.294-4.859-2.439c-0.076,0.019-0.141,0.084-0.115,0.069C115.085,17.811,115.295,18.574,115.052,19.145z
			M112.393,33.706c1.545-3.772,3.045-7.433,4.702-11.477c1.621,4.016,3.104,7.689,4.633,11.477
			C118.527,33.706,115.551,33.706,112.393,33.706z M97.547,34.604c4.735-0.505,7.72-3.314,8.287-8.045
			c0.44-3.672-0.848-7.325-4.967-8.983c-4.226-1.7-8.55-1.1-12.982-0.567c0.054,1.025,0.142,1.928,0.143,2.83
			c0.011,8.12,0.006,16.24,0.007,24.361c0,0.333-0.097,0.714,0.032,0.986c0.148,0.313,0.496,0.745,0.762,0.748
			c1.133,0.014,2.267-0.112,3.477-0.191c0-8.905,0-17.554,0-26.276c2.903-0.423,5.696-0.395,7.708,1.897
			c1.908,2.175,1.884,4.912,0.78,7.422c-1.385,3.151-4.21,3.51-7.25,2.972C93.471,34.303,95.358,34.838,97.547,34.604z
			M148.217,43.206c-4.646,0.182-8.654-1.297-11.071-5.558c-1.926-3.396-1.946-7.078-0.967-10.775
			c0.627-2.37,1.941-4.323,3.992-5.702c4.054-2.725,8.331-2.594,12.728-0.94c0.459,0.173,1.162,0.31,1.488,0.083
			c0.49-0.34,0.947-0.988,1.027-1.56c0.051-0.357-0.539-0.985-0.982-1.199c-2.922-1.406-6.037-1.757-9.234-1.439
			c-4.832,0.48-8.857,2.444-11.636,6.556c-2.275,3.367-2.808,7.139-2.37,11.091c0.382,3.454,1.55,6.626,4.295,8.863
			c5.141,4.188,10.99,4.667,17.16,2.789c1.602-0.487,2.168-1.774,2.402-3.248C152.689,42.542,150.463,43.118,148.217,43.206z
			M261.248,42.975c-0.984-0.002-1.428-0.372-1.406-1.497c0.076-3.997,0.029-7.996,0.029-11.995c0-3.79,0.018-7.581-0.023-11.371
			c-0.006-0.482-0.303-1.369-0.488-1.375c-1.146-0.036-2.32,0.042-3.432,0.305c-0.186,0.044-0.127,1.17-0.162,1.798
			c-0.02,0.332-0.002,0.666-0.002,1c0,7.83,0,15.661,0,23.491c0,1.961,0.256,2.325,2.156,2.383
			c3.695,0.114,7.396,0.162,11.094,0.168c1.664,0.004,2.66-1.146,2.688-2.904C268.152,42.977,264.701,42.98,261.248,42.975z
			M215.215,74.748c-2.152-3.16-4.293-6.329-6.469-9.473c-0.238-0.343-0.66-0.735-1.031-0.772
			c-1.037-0.105-2.092-0.037-2.777-0.037c0.07,5.385,0.02,10.505,0.035,15.692c0.219,0.012,0.463,0.033,0.707,0.037
			c1.826,0.032,1.939-0.074,1.941-1.854c0.004-1.957,0.002-3.914,0.002-5.871c0-1.26,0-2.519,0-3.948
			c0.268,0.373,0.459,0.624,0.635,0.888c2.15,3.258,4.283,6.529,6.457,9.771c0.781,1.164,1.918,1.454,3.213,0.883
			c0.236-0.104,0.523-0.45,0.523-0.687c0.031-4.938,0.023-9.877,0.023-14.811c-2.564-0.346-2.674-0.253-2.674,2.259
			c0,2.856,0,5.712,0,8.754C215.541,75.211,215.375,74.982,215.215,74.748z M114.725,72.02c-0.144,5.045,3.171,8.409,8.336,8.425
			c5.045,0.016,8.461-3.336,8.465-8.281c0.004-4.775-3.318-7.992-8.258-7.996C118.123,64.163,114.859,67.266,114.725,72.02z
			M125.672,77.754c-2.502,1.603-5.696,0.374-6.881-2.636c-0.704-1.791-0.712-3.651-0.188-5.492c0.613-2.162,2.106-3.406,4.03-3.45
			c2.449-0.056,4.161,1.136,4.929,3.55c0.285,0.896,0.369,1.854,0.459,2.326C127.915,74.588,127.56,76.544,125.672,77.754z
			M160.275,80.121c2.908,0.262,5.828,0.466,8.547-0.916c3.244-1.648,4.434-4.42,4.205-7.942c-0.199-3.064-1.695-5.193-4.588-6.191
			c-3.234-1.115-6.537-0.628-9.879-0.284c0,5.074,0,10.012,0,15.029C159.223,79.937,159.744,80.073,160.275,80.121z
			M168.434,68.398c1.416,1.808,1.48,5.475,0.135,7.551c-1.166,1.797-3.771,2.8-6.063,2.264c-0.287-0.067-0.691-0.508-0.695-0.779
			c-0.047-3.612-0.031-7.225-0.031-10.802C164.225,65.879,167.074,66.663,168.434,68.398z M263.484,71.632
			c2.193-1.998,1.486-5.802-1.32-6.723c-2.66-0.873-5.379-0.504-8.137-0.126c0,2.695,0,5.232,0,7.77c0,2.522,0,5.045,0,7.645
			c0.68,0,1.217-0.027,1.752,0.005c1.107,0.066,1.551-0.355,1.475-1.53c-0.105-1.607-0.025-3.227-0.025-4.816
			c1.549-0.406,2.08,0.625,2.646,1.532c0.748,1.197,1.373,2.475,2.174,3.633c0.916,1.322,2.939,1.646,4.4,0.848
			c-1.52-2.323-3.041-4.647-4.604-7.035C262.42,72.417,262.998,72.075,263.484,71.632z M257.291,66.372
			c1.326-0.234,2.535-0.241,3.434,0.886c0.787,0.986,0.824,2.452,0.137,3.508c-0.869,1.335-2.182,1.107-3.57,1.018
			C257.291,69.897,257.291,68.165,257.291,66.372z M236.096,73.984c0.09,3.835,1.912,5.974,5.633,6.383
			c4.213,0.462,7.668-1.058,7.986-5.86c0.219-3.296,0.043-6.619,0.043-10.052c-0.367,0-0.816,0.023-1.264-0.004
			c-1.01-0.063-1.521,0.246-1.439,1.405c0.104,1.45,0.061,2.915,0.016,4.372c-0.053,1.699-0.016,3.425-0.314,5.086
			c-0.4,2.243-2.131,3.211-4.357,2.713c-1.887-0.422-2.91-1.834-2.947-4.185c-0.035-2.123-0.002-4.248-0.01-6.373
			c-0.014-3.495,0.25-3.124-3.195-2.888c-0.033,0.002-0.063,0.05-0.164,0.136C236.082,67.826,236.023,70.907,236.096,73.984z
			M143.768,78.901c0.675-2.821,2.316-3.526,5.012-3.24c2.611,0.276,1.93-0.321,2.908,1.998c1.152,2.73,1.111,2.75,3.986,2.308
			c0.148-0.023,0.285-0.121,0.504-0.218c-2.059-4.909-4.084-9.768-6.154-14.606c-0.129-0.302-0.586-0.632-0.906-0.649
			c-0.814-0.044-1.639,0.082-2.146,0.118c-2.267,5.194-4.429,10.146-6.593,15.104C142.766,80.582,143.376,80.536,143.768,78.901z
			M148.074,68.131c0.795,2.002,1.451,3.656,2.17,5.471c-1.463,0-2.789,0-4.332,0C146.613,71.829,147.271,70.16,148.074,68.131z
			M181.467,75.402c-1.012-2.723-2.029-5.444-3.014-8.177c-1.09-3.025-1.275-3.146-4.242-2.421
			c-0.109,0.027-0.203,0.125-0.299,0.188c1.977,4.9,3.936,9.784,5.939,14.649c0.119,0.29,0.578,0.579,0.908,0.62
			c1.541,0.189,2.098-0.175,2.691-1.578c1.76-4.169,3.531-8.333,5.277-12.508c0.516-1.229,0.301-1.475-1.021-1.701
			c-1.072-0.185-1.539,0.256-1.889,1.226c-1.25,3.465-2.576,6.901-3.92,10.471C181.705,75.831,181.551,75.63,181.467,75.402z
			M107.112,77.762c-2.616-0.77-4.068-2.999-3.942-6.053c0.113-2.733,1.696-4.816,4.308-5.184c1.381-0.194,2.857,0.063,4.257,0.309
			c0.927,0.162,1.557,0.103,1.863-0.854c0.338-1.054-0.628-1.068-1.147-1.239c-2.917-0.961-5.828-0.877-8.579,0.539
			c-5.168,2.658-5.902,10.167-1.27,13.429c2.69,1.895,5.756,2.134,8.925,1.306c1.239-0.323,1.804-1.077,1.776-2.448
			C109.838,78.352,109.184,78.37,107.112,77.762z M268.785,65.116c0.012,4.661,0.01,9.323,0.094,13.982
			c0.006,0.308,0.648,0.839,1.021,0.864c2.15,0.145,4.311,0.199,6.467,0.223c1.428,0.016,1.99-0.547,2.283-2.176
			c-1.836,0-3.656,0.044-5.471-0.035c-0.395-0.018-1.074-0.453-1.1-0.744c-0.121-1.31-0.053-2.637-0.053-4.127
			c1.301,0,2.455,0.011,3.609-0.003c1.543-0.018,1.859-0.342,2.025-2.184c-1.857,0-3.703,0-5.641,0
			c0-1.244,0.039-2.324-0.012-3.399c-0.039-0.798,0.322-1.009,1.041-0.983c0.998,0.035,2,0.013,2.998,0.006
			c1.451-0.011,1.832-0.436,1.766-1.824c-2.982,0-5.957,0-8.844,0C268.85,64.971,268.785,65.044,268.785,65.116z M191.541,79.034
			c0.004,0.323,0.553,0.896,0.875,0.916c2.318,0.144,4.645,0.244,6.967,0.213c1.217-0.017,1.934-0.797,2.049-2.154
			c-1.924,0-3.791,0.031-5.656-0.028c-0.344-0.011-0.953-0.371-0.967-0.601c-0.092-1.389-0.047-2.786-0.047-4.277
			c1.367,0,2.529,0.014,3.689-0.003c1.486-0.021,1.914-0.501,1.873-2.172c-1.809,0-3.625,0-5.504,0c0-1.479,0-2.832,0-4.387
			c1.363,0,2.682,0.007,4-0.002c1.393-0.009,1.711-0.352,1.783-1.85c-2.975,0-5.949,0-9.102,0
			C191.502,69.64,191.484,74.338,191.541,79.034z M91.567,66.541c1.319,0,2.558,0.004,3.797-0.001
			c1.544-0.006,1.814-0.285,1.846-1.793c-3.042,0-6.08,0-9.02,0c0,1.125,0,2.033,0,2.941c0,3.662,0.019,7.323-0.013,10.984
			c-0.008,0.927,0.253,1.354,1.269,1.354c2.114-0.003,4.229,0.143,6.343,0.157c1.383,0.01,2.083-0.729,2.178-2.175
			c-1.832,0-3.66,0.025-5.486-0.022c-0.33-0.009-0.925-0.307-0.935-0.496c-0.08-1.431-0.044-2.867-0.044-4.388
			c1.32,0,2.44,0.015,3.56-0.003c1.551-0.024,1.927-0.437,1.891-2.141c-1.767,0-3.539,0-5.385,0
			C91.567,69.398,91.567,68.044,91.567,66.541z M227.291,80.199c1.111,0.03,1.59-0.376,1.549-1.608
			c-0.096-2.913-0.031-5.831-0.031-8.747c0-3.278,0-3.278,3.334-3.303c0.125-0.001,0.252,0.003,0.375-0.002
			c1.168-0.048,1.666-0.658,1.576-2.006c-0.492,0-0.988,0.001-1.484-0.001c-3.375-0.011-6.748,0.01-10.121-0.049
			c-1.629-0.028-1.955,0.204-2.113,2.107c1.695,0,3.377,0,5.143,0c0,4.584,0,8.991,0,13.605
			C226.225,80.196,226.758,80.185,227.291,80.199z M137.938,73.603c1.365-0.323,1.856-1.06,1.879-2.66
			c-1.384,0.272-2.753,0.547-4.123,0.813c-1.471,0.285-1.821,0.729-1.881,2.664C135.227,74.144,136.594,73.922,137.938,73.603z"/>
		<path fill="#007698" d="M21.505,0.481c2.533,1.548,2.909,3.069,1.359,5.679
			c-0.594,1-1.252,1.963-1.895,2.935c-0.939,1.419-0.895,2.874,0.122,4.157c0.871,1.099,1.936,2.056,2.991,2.988
			c0.285,0.251,0.853,0.247,1.291,0.249c3.746,0.018,7.492,0.01,11.506,0.01c-1.439,0.858-2.692,1.538-3.874,2.328
			c-1.163,0.778-2.252,1.666-3.534,2.626c0.783,0.723,1.436,1.326,2.123,1.96c0.774-0.587,1.439-1.148,2.158-1.627
			c8.141-5.418,16.714-6.267,25.713-2.378c2.777,1.2,5.236,2.84,7.229,5.175c2.899,3.396,3.101,7.184,1.84,11.238
			c-0.258,0.831-0.553,1.658-0.715,2.509c-0.185,0.968-0.139,1.939,0.869,2.513c1.03,0.586,1.938,0.229,2.726-0.494
			c2.095-1.925,2.567-4.491,2.705-7.152c0.356-6.922-3.38-11.383-8.946-14.707c-1.093-0.652-2.244-1.204-3.604-1.928
			c2.988,0,5.726-0.184,8.428,0.047c3.314,0.283,5.75,3.261,5.754,6.631c0.009,7.625,0.003,15.249,0.003,22.873
			c0,0.493,0,0.987,0,1.582c1.138-0.258,2.135-0.519,3.146-0.706c1.446-0.268,2.806,0.011,3.688,1.237
			c0.836,1.162,0.339,2.405-0.255,3.532c-1.612,3.063-4.773,5.599-8.884,7.271c-0.241,2.692-0.243,5.325-0.75,7.857
			c-1.296,6.475-5.227,10.85-11.421,13.04c-2.81,0.993-5.604,0.446-7.781-1.647c-2.175-2.09-2.286-4.864-1.516-7.566
			c0.382-1.336,1.249-2.606,2.146-3.702c0.91-1.112,2.501-1.166,3.793-0.547c0.758,0.363,1.158,0.955,0.895,1.688
			c-0.155,0.435-0.768,0.705-1.652,1.073c0.404,0.521,0.707,1.284,1.237,1.509c0.881,0.372,1.788,0.062,2.421-0.772
			c1.529-2.017,0.641-5.305-1.834-6.762c-2.254-1.326-5.239-0.675-7.21,1.747c-3.598,4.42-4.727,9.513-3.849,15.219
			c-0.623,0-1.253,0-2,0c-0.407-3.688,0.439-7.203,1.524-10.699c-2.13,3.237-3.041,6.851-3.269,10.739c-1.221,0-2.365,0-3.797,0
			c0.312-1.304,0.529-2.548,0.907-3.74c2.092-6.593,6.031-11.82,11.907-15.463c3.198-1.983,6.603-1.797,8.955,0.274
			c2.384,2.099,2.89,4.864,2.337,7.853c-0.466,2.522-2.154,3.928-4.556,4.59c-1.475,0.406-2.74,0.044-3.732-1.074
			c-0.954-1.073-0.977-2.332-0.451-3.626c0.09-0.219,0.169-0.442,0.317-0.832c-1.452,0.595-2.231,1.533-2.548,2.85
			c-0.823,3.42,1.58,6.508,5.183,6.728c1.811,0.11,3.482-0.311,4.991-1.273c5.334-3.4,8.217-8.204,7.781-14.609
			c-0.187-2.742-0.158-2.335-2.875-1.793c1.132,4.683,0.396,8.938-3.317,12.387c0.231-0.476,0.479-0.943,0.691-1.427
			c1.33-3.032,2.18-6.103,0.943-9.406c-0.37-0.989-0.95-1.549-2.021-1.656c-3.511-0.353-7.013-0.79-10.528-1.072
			c-0.753-0.061-1.674,0.212-2.304,0.643c-4.9,3.356-8.613,7.795-11.394,13.007c-1.192,2.234-2.17,4.582-3.299,6.852
			c-0.181,0.363-0.669,0.828-0.977,0.802c-0.331-0.028-0.813-0.538-0.893-0.911c-1.028-4.746-2.016-9.501-2.967-14.263
			c-0.29-1.45-0.436-2.928-0.683-4.643c-1.213,0.716-2.184,1.29-3.316,1.959c0.864-2.034,2.33-3.17,4.117-3.949
			c3.182-1.388,6.577-1.744,9.985-1.859c7.257-0.247,14.4,0.935,21.584,1.729c6.444,0.712,11.956-1.404,16.033-6.671
			c0.177-0.229,0.382-0.477,0.442-0.746c0.11-0.488,0.338-1.159,0.117-1.458c-0.245-0.33-0.965-0.504-1.432-0.435
			c-1.228,0.182-2.419,0.602-3.646,0.803c-2.814,0.462-5.445-0.367-8-1.39c-4.557-1.824-8.575-4.564-12.438-7.547
			c-2.718-2.098-5.607-3.879-8.945-4.821c-3.016-0.851-5.99-0.67-8.947,0.505c-0.229-4.272-2.525-7.467-5.276-10.235
			c-3.184-3.204-6.742-6.035-10.099-9.07c-1.442-1.304-2.961-2.566-3.522-4.579c-0.551-1.973-0.017-3.681,1.087-5.305
			c0.652-0.96,1.302-1.93,1.846-2.953c0.197-0.373,0.281-1.128,0.066-1.325c-0.369-0.337-1.05-0.58-1.537-0.496
			c-1.919,0.329-3.601,1.199-5.059,2.522c-3.1,2.814-4.606,6.442-5.429,10.434c-1.321,6.419,0.175,12.465,2.53,18.364
			c1.725,4.319,3.704,8.538,5.361,12.882c1,2.621,1.603,5.395,2.379,8.085c2.071-4.585,4.952-8.799,8.765-12.331
			c-6.098,8.33-9.63,17.843-12.763,27.54c-0.896,2.77-1.762,5.547-2.635,8.323c-0.68,2.162-0.746,2.205-3.138,1.745
			c0.946-2.493,1.923-4.958,2.82-7.451c2.063-5.735,3.744-11.57,3.707-17.731c-0.027-4.38-1.016-8.53-3.994-11.923
			c-3.125-3.56-7.068-4.966-11.771-4.094c-0.243,0.045-0.495,0.04-0.743,0.057c0-1.167,0-2.333,0-3.5
			c4.241-0.158,7.912,1.559,11.58,3.481c-1.131-1.254-2.273-2.491-3.652-3.349c-2.451-1.525-4.947-3.052-7.928-3.382
			c0-0.5,0-1,0-1.5c3.793,0.604,7.163,2.31,10.545,4.051c-2.444-4.041-5.924-6.594-10.545-7.551c0-0.333,0-0.667,0-1
			c3.095-0.248,5.662,1.145,8.33,2.896c-0.953-4.37-2.919-7.914-5.849-11.351c1.588-0.567,2.958-1.056,4.568-1.631
			c-0.166,0.188-0.123,0.161-0.114,0.125c0.03-0.121,0.05-0.244,0.069-0.367C8.161,8.436,11.67,2.84,19.255,0.481
			C20.005,0.481,20.755,0.481,21.505,0.481z M58.517,31.92c-0.303,0.181-0.489,0.253-0.627,0.379
			c-1.961,1.805-2.176,4.275-0.552,6.244c1.539,1.864,4.421,2.229,6.423,0.813c2.624-1.855,3.895-5.898,2.838-9.173
			c-1.721-5.328-5.796-8.316-10.786-9.895c-6.782-2.146-13.471-1.232-19.85,1.864c-1.209,0.587-2.348,1.319-3.612,2.037
			c0.606,0.677,1.001,1.229,1.51,1.64c0.273,0.22,0.828,0.385,1.111,0.256c4.728-2.149,9.677-2.888,14.813-2.339
			c4.43,0.473,8.193,2.225,10.562,6.183c0.608,1.017,0.897,2.273,1.108,3.46c0.131,0.734-0.366,1.332-1.267,1.364
			c-0.965,0.035-1.479-0.487-1.657-1.354C58.444,32.976,58.517,32.52,58.517,31.92z M51.188,32.595
			c-0.94,0.476-1.877,0.834-2.67,1.395c-0.516,0.364-0.464,0.878,0.263,1.213c1.244,0.573,2.522,1.128,3.637,1.906
			c0.959,0.67,1.477,0.327,2.062-0.382c1.534-1.857,1.414-5.012-0.279-7.185c-3.815-4.896-11.256-4.873-15.469,0.047
			c-1.387,1.62-1.399,1.907-0.134,3.881c1.515-2.201,3.305-4.003,6.175-4.079C47.832,29.313,50.81,31.05,51.188,32.595z
			M48.052,58.612c-0.173-0.158-0.233-0.262-0.292-0.261c-2.823,0.054-5.647,0.091-8.469,0.211
			c-0.342,0.015-0.798,0.418-0.975,0.759c-1.032,1.992-1.873,4.094-3.019,6.015c-1.267,2.124-0.57,4.115-0.045,6.487
			C38.856,66.551,42.931,62.076,48.052,58.612z M74.816,47.943c-4.224-4.193-9.436-5.672-15.144-5.82
			C64.278,45.249,68.813,48.56,74.816,47.943z M36.626,29.586c1.415-1.122,2.755-2.183,4.095-3.245
			c-0.065-0.124-0.132-0.248-0.197-0.372c-1.573,0.723-3.146,1.447-4.832,2.222C36.096,28.794,36.343,29.163,36.626,29.586z
			M0.006,54.729c1.118,0.599,2.158,0.53,3.075-0.395c1.001-1.008,1.558-2.192,1.106-3.615c-0.522-1.646-2.026-1.973-3.229-0.755
			c-0.668-1.493-0.552-2.985,0.385-3.997c1.058-1.143,2.351-1.26,3.777-0.793c3.572,1.169,5.335,3.945,6.349,7.289
			c1.457,4.804,1.207,9.712,0.35,14.56c-0.7,3.96-1.809,7.847-2.646,11.786c-0.263,1.233-0.855,1.67-2.044,1.488
			c-0.321-0.049-0.656-0.007-1.073-0.108c1.716-1.146,2.573-2.755,2.88-4.703c0.475-3.027-1.257-5.794-4.025-6.399
			c-1.324-0.289-2.992,0.616-3.443,1.871c-0.396,1.102,0.12,2.602,1.262,2.847c0.896,0.193,1.915-0.174,3.348-0.35
			c0.943,0.57,0.189,2.896-1.064,3.63c-1.662,0.973-3.549,0.476-4.448-1.247c-0.226-0.433-0.374-0.905-0.558-1.359
			C0.006,67.896,0.006,61.313,0.006,54.729z M9.75,69.74c0.056,0.007,0.112,0.014,0.168,0.021c0.089-0.349,0.21-0.693,0.263-1.048
			c0.464-3.127,0.783-6.265,0.33-9.419c-0.28-1.948-0.742-3.86-2.12-5.366c-1.525-1.668-3.221-1.343-4.028,0.769
			C3.915,55.861,4.07,57.021,4.9,57.974c0.629,0.723,1.395,1.023,2.231,0.123c-0.165-0.082-0.339-0.11-0.371-0.194
			c-0.149-0.387-0.393-0.809-0.338-1.18c0.037-0.253,0.651-0.681,0.763-0.615c0.398,0.235,0.912,0.604,0.99,0.999
			c0.501,2.558,0.966,5.126,1.305,7.709C9.694,66.44,9.668,68.098,9.75,69.74z M5.112,61.95c-0.006-1.441-0.956-2.521-1.815-2.453
			c-0.833,0.065-1.238,0.586-1.259,1.402c-0.023,1.007,0.881,2.2,1.73,2.032C4.344,62.817,4.815,62.182,5.112,61.95z M8.722,65.479
			c-0.864-0.764-1.363-1.533-2.011-1.69c-0.771-0.188-1.261,0.569-1.196,1.37c0.073,0.898,0.563,1.689,1.522,1.644
			C7.505,66.779,7.943,66.119,8.722,65.479z M0.006,24.73c1.729,0.233,3.456,0.467,5.244,0.708
			c-0.469-2.462-1.962-4.318-4.036-6.125c-0.439,1.06-0.823,1.988-1.208,2.917C0.006,23.064,0.006,23.897,0.006,24.73z
			M66.854,80.185c0.959,0.095,1.831,0.146,2.695,0.086c3.145-0.219,6.032-2.885,6.173-5.831c0.112-2.36,0.022-4.73,0.022-7.097
			C74.845,73.035,72.366,77.617,66.854,80.185z"/>
	</g>
</svg>
