<svg width="41" height="40" viewBox="0 0 41 40" fill="none" xmlns="http://www.w3.org/2000/svg">
<path d="M20.5002 36.6663C29.7049 36.6663 37.1668 29.2044 37.1668 19.9997C37.1668 10.7949 29.7049 3.33301 20.5002 3.33301C11.2954 3.33301 3.8335 10.7949 3.8335 19.9997C3.8335 29.2044 11.2954 36.6663 20.5002 36.6663Z" stroke="#007698" stroke-width="2" stroke-linecap="round" stroke-linejoin="round"/>
<path d="M8.7168 8.2168L15.7835 15.2835" stroke="#007698" stroke-width="2" stroke-linecap="round" stroke-linejoin="round"/>
<path d="M25.2168 15.2835L32.2835 8.2168" stroke="#007698" stroke-width="2" stroke-linecap="round" stroke-linejoin="round"/>
<path d="M25.2168 24.7168L32.2835 31.7835" stroke="#007698" stroke-width="2" stroke-linecap="round" stroke-linejoin="round"/>
<path d="M15.7835 24.7168L8.7168 31.7835" stroke="#007698" stroke-width="2" stroke-linecap="round" stroke-linejoin="round"/>
<path d="M20.5002 26.6663C24.1821 26.6663 27.1668 23.6816 27.1668 19.9997C27.1668 16.3178 24.1821 13.333 20.5002 13.333C16.8183 13.333 13.8335 16.3178 13.8335 19.9997C13.8335 23.6816 16.8183 26.6663 20.5002 26.6663Z" stroke="#007698" stroke-width="2" stroke-linecap="round" stroke-linejoin="round"/>
</svg>
