<svg width="21" height="21" viewBox="0 0 21 21" fill="none" xmlns="http://www.w3.org/2000/svg">
<path d="M20.0909 8.17246C19.96 7.76748 19.6008 7.47984 19.1758 7.44154L13.4033 6.91739L11.1207 1.57469C10.9524 1.18314 10.5691 0.929688 10.1432 0.929688C9.71728 0.929688 9.33397 1.18314 9.16566 1.57561L6.88304 6.91739L1.10958 7.44154C0.685375 7.48076 0.32709 7.76748 0.195403 8.17246C0.0637161 8.57744 0.185332 9.02163 0.506232 9.30164L4.8696 13.1283L3.58294 18.7961C3.48879 19.2128 3.65054 19.6435 3.99631 19.8935C4.18217 20.0278 4.39961 20.0961 4.61889 20.0961C4.80795 20.0961 4.99548 20.0452 5.16379 19.9445L10.1432 16.9685L15.1207 19.9445C15.4849 20.1636 15.9441 20.1436 16.2891 19.8935C16.635 19.6428 16.7966 19.2119 16.7025 18.7961L15.4158 13.1283L19.7792 9.3024C20.1001 9.02163 20.2226 8.5782 20.0909 8.17246Z" fill="#007698"/>
</svg>
