<svg width="40" height="40" viewBox="0 0 40 40" fill="none" xmlns="http://www.w3.org/2000/svg">
<path d="M3.3335 34.9997C4.3335 35.833 5.3335 36.6663 7.50016 36.6663C11.6668 36.6663 11.6668 33.333 15.8335 33.333C18.0002 33.333 19.0002 34.1663 20.0002 34.9997C21.0002 35.833 22.0002 36.6663 24.1668 36.6663C28.3335 36.6663 28.3335 33.333 32.5002 33.333C34.6668 33.333 35.6668 34.1663 36.6668 34.9997" stroke="#007698" stroke-width="2" stroke-linecap="round" stroke-linejoin="round"/>
<path d="M32.3 33.3337C34.0928 30.308 35.0263 26.8505 35 23.3337L20 16.667L5 23.3337C5 28.167 6.56667 32.2337 9.68333 36.267" stroke="#007698" stroke-width="2" stroke-linecap="round" stroke-linejoin="round"/>
<path d="M31.6668 21.6663V11.6663C31.6668 10.7823 31.3156 9.93444 30.6905 9.30932C30.0654 8.6842 29.2176 8.33301 28.3335 8.33301H11.6668C10.7828 8.33301 9.93493 8.6842 9.30981 9.30932C8.68469 9.93444 8.3335 10.7823 8.3335 11.6663V21.6663" stroke="#007698" stroke-width="2" stroke-linecap="round" stroke-linejoin="round"/>
<path d="M20 16.667V23.3337" stroke="#007698" stroke-width="2" stroke-linecap="round" stroke-linejoin="round"/>
<path d="M20 3.33301V8.33301" stroke="#007698" stroke-width="2" stroke-linecap="round" stroke-linejoin="round"/>
</svg>
