<svg width="41" height="40" viewBox="0 0 41 40" fill="none" xmlns="http://www.w3.org/2000/svg">
<path d="M20.5 33.3333C27.8638 33.3333 33.8334 27.3638 33.8334 20C33.8334 12.6362 27.8638 6.66666 20.5 6.66666C13.1362 6.66666 7.16669 12.6362 7.16669 20C7.16669 27.3638 13.1362 33.3333 20.5 33.3333Z" stroke="#007698" stroke-width="2" stroke-linecap="round" stroke-linejoin="round"/>
<path d="M20.5 3.33334V15.8333" stroke="#007698" stroke-width="2" stroke-linecap="round" stroke-linejoin="round"/>
<path d="M32.1667 8.33334L23.45 17.05" stroke="#007698" stroke-width="2" stroke-linecap="round" stroke-linejoin="round"/>
<path d="M37.1667 20H24.6667" stroke="#007698" stroke-width="2" stroke-linecap="round" stroke-linejoin="round"/>
<path d="M32.1667 31.6659L23.45 22.9492" stroke="#007698" stroke-width="2" stroke-linecap="round" stroke-linejoin="round"/>
<path d="M20.5 24.1667V36.6667" stroke="#007698" stroke-width="2" stroke-linecap="round" stroke-linejoin="round"/>
<path d="M17.55 22.9492L8.83331 31.6659" stroke="#007698" stroke-width="2" stroke-linecap="round" stroke-linejoin="round"/>
<path d="M16.3333 20H3.83331" stroke="#007698" stroke-width="2" stroke-linecap="round" stroke-linejoin="round"/>
<path d="M17.55 17.05L8.83331 8.33334" stroke="#007698" stroke-width="2" stroke-linecap="round" stroke-linejoin="round"/>
<path d="M20.5 24.1667C22.8012 24.1667 24.6666 22.3012 24.6666 20C24.6666 17.6988 22.8012 15.8333 20.5 15.8333C18.1988 15.8333 16.3333 17.6988 16.3333 20C16.3333 22.3012 18.1988 24.1667 20.5 24.1667Z" stroke="#007698" stroke-width="2" stroke-linecap="round" stroke-linejoin="round"/>
</svg>
