<?xml version="1.0" encoding="utf-8"?>
<!-- Generator: Adobe Illustrator 28.0.0, SVG Export Plug-In . SVG Version: 6.00 Build 0)  -->
<svg version="1.1" id="Layer_1" xmlns="http://www.w3.org/2000/svg" xmlns:xlink="http://www.w3.org/1999/xlink" x="0px" y="0px"
	 viewBox="0 0 583.84 71.57" style="enable-background:new 0 0 583.84 71.57;" xml:space="preserve">
<style type="text/css">
	.st0{fill:#F7941D;}
	.st1{fill:#007698;}
</style>
<g>
	<path class="st0" d="M583.84,20.02v31.56C534.39,30.59,473.37,19.9,408.17,23.66c-29.56,1.71-57.86,6.26-84.26,13.19h-6.16
		c2.45-0.9,4.91-1.78,7.4-2.64c38.38-13.36,81.26-22.03,126.84-24.65C498.56,6.87,543.21,10.77,583.84,20.02z M259.66,51.76
		c-1.63,0.19-3.27,0.36-4.91,0.52c-25.66,2.6-52.63,2.87-80.36,0.48C109.32,47.16,45.94,27.85,0,0v31.24
		C38.89,46.2,82.52,56.45,129,60.45c48.43,4.18,92.84,0.84,134.79-8.1L259.66,51.76z"/>
	<path class="st1" d="M583.84,38.49v33.08C533.66,46.45,469.79,31.4,400.24,31.4c-40.22,0-78.55,5.03-113.43,14.13
		c-0.14,0.04-0.27,0.07-0.41,0.11c0.64-0.22,1.28-0.44,1.92-0.65c11.85-4.06,24.14-7.66,36.83-10.78
		c37.52-9.27,78.44-14.37,121.29-14.37C495.51,19.84,542.05,26.53,583.84,38.49z M288.32,44.99c-10.87,2.84-22.08,5.28-33.57,7.29
		c-25.38,4.46-52.17,6.84-79.87,6.84C109.29,59.12,48.77,45.73,0,23.15v31.28c39.51,10.45,83,16.25,128.68,16.25
		c57.35,0,111.23-9.13,158.13-25.15c0.64-0.21,1.28-0.43,1.92-0.65C288.59,44.92,288.46,44.95,288.32,44.99z"/>
</g>
</svg>
